<?xml version="1.0" encoding="UTF-8" standalone="no"?>
<svg width="91px" height="100px" viewBox="0 0 91 100" version="1.1" xmlns="http://www.w3.org/2000/svg" xmlns:xlink="http://www.w3.org/1999/xlink" xmlns:sketch="http://www.bohemiancoding.com/sketch/ns">
    <!-- Generator: Sketch 3.2.2 (9983) - http://www.bohemiancoding.com/sketch -->
    <title>Shape</title>
    <desc>Created with Sketch.</desc>
    <defs></defs>
    <g id="Page-1" stroke="none" stroke-width="1" fill="none" fill-rule="evenodd" sketch:type="MSPage">
        <g id="bill" sketch:type="MSLayerGroup" transform="translate(-3.000000, 0.000000)" fill="#308C89">
            <g id="Page-1" sketch:type="MSShapeGroup">
                <g id="billings">
                    <path d="M90.4896,17.2965517 L82.6164,17.2965517 C81.1764,7.26551724 72.1296,0 61.1532,0 C51.2964,0 42.9912,5.86206897 40.3524,14.3206897 L26.0172,10.5275862 C24.5124,10.1275862 22.9644,11 22.5648,12.4793103 L3.6936,82.0517241 C3.294,83.5310345 4.1904,85.0517241 5.6988,85.4482759 L25.164,90.6034483 L25.164,97.037931 C25.164,98.6689655 26.5536,99.9896552 28.2708,99.9896552 L90.486,99.9896552 C92.2068,99.9896552 93.5964,98.6655172 93.5964,97.037931 L93.5964,20.2482759 C93.6,18.6172414 92.2068,17.2965517 90.4896,17.2965517 L90.4896,17.2965517 L90.4896,17.2965517 Z M25.164,81.1068966 L13.9896,78.1517241 L25.164,36.9551724 L25.164,81.1068966 L25.164,81.1068966 Z M39.096,37.9586207 L47.178,37.9586207 C48.9132,37.9586207 50.3208,39.5137931 50.3208,41.4310345 C50.3208,43.3482759 48.9132,44.9 47.178,44.9 L39.096,44.9 C37.3608,44.9 35.9496,43.3482759 35.9496,41.4310345 C35.9496,39.5137931 37.3608,37.9586207 39.096,37.9586207 L39.096,37.9586207 L39.096,37.9586207 Z M57.9744,72.4344828 L39.096,72.4344828 C37.3608,72.4344828 35.9496,70.8827586 35.9496,68.962069 C35.9496,67.0413793 37.3608,65.4896552 39.096,65.4896552 L57.9744,65.4896552 C59.7096,65.4896552 61.1172,67.0413793 61.1172,68.962069 C61.1172,70.8827586 59.7132,72.4344828 57.9744,72.4344828 L57.9744,72.4344828 L57.9744,72.4344828 Z M58.2948,58.6689655 L38.8368,58.6689655 C37.2456,58.6689655 35.9496,57.1172414 35.9496,55.2 C35.9496,53.2793103 37.242,51.7241379 38.8368,51.7241379 L58.2948,51.7241379 C59.886,51.7241379 61.182,53.2793103 61.182,55.2 C61.182,57.1137931 59.8896,58.6689655 58.2948,58.6689655 L58.2948,58.6689655 L58.2948,58.6689655 Z M57.5964,37.9655172 L57.5964,23.7586207 C57.5964,20.337931 64.7964,19.9103448 64.7964,23.7586207 L64.7964,34.5206897 C64.7964,37.5448276 68.3964,37.6758621 68.3964,34.5206897 L68.3964,18.8103448 C68.3964,12.4896552 56.3004,12.1310345 54.306,17.3034483 L47.0232,17.3034483 C48.1032,10.662069 54.5508,7.04137931 61.0884,6.86551724 C68.328,6.66551724 75.5928,10.6344828 75.5928,19.2413793 L75.5928,37.9689655 C75.5928,47.8 57.5964,47.8896552 57.5964,37.9655172 L57.5964,37.9655172 L57.5964,37.9655172 Z M79.1208,72.4344828 L75.546,72.4344828 C73.5696,72.4344828 71.9712,70.8827586 71.9712,68.962069 C71.9712,67.0413793 73.5696,65.4896552 75.546,65.4896552 L79.1208,65.4896552 C81.0936,65.4896552 82.6956,67.0413793 82.6956,68.962069 C82.6956,70.8827586 81.09,72.4344828 79.1208,72.4344828 L79.1208,72.4344828 L79.1208,72.4344828 Z M79.1208,58.6689655 L75.546,58.6689655 C73.5696,58.6689655 71.9712,57.1172414 71.9712,55.2 C71.9712,53.2793103 73.5696,51.7241379 75.546,51.7241379 L79.1208,51.7241379 C81.0936,51.7241379 82.6956,53.2793103 82.6956,55.2 C82.6956,57.1137931 81.09,58.6689655 79.1208,58.6689655 L79.1208,58.6689655 L79.1208,58.6689655 Z" id="Shape"></path>
                </g>
            </g>
        </g>
    </g>
</svg>