<?xml version="1.0" encoding="UTF-8" standalone="no"?>
<svg width="95px" height="99px" viewBox="0 0 95 99" version="1.1" xmlns="http://www.w3.org/2000/svg" xmlns:xlink="http://www.w3.org/1999/xlink" xmlns:sketch="http://www.bohemiancoding.com/sketch/ns">
    <!-- Generator: Sketch 3.2.2 (9983) - http://www.bohemiancoding.com/sketch -->
    <title>Shape</title>
    <desc>Created with Sketch.</desc>
    <defs></defs>
    <g id="Page-1" stroke="none" stroke-width="1" fill="none" fill-rule="evenodd" sketch:type="MSPage">
        <g id="plane" sketch:type="MSLayerGroup" fill="#0097D7">
            <g id="Page-1" sketch:type="MSShapeGroup">
                <g id="air">
                    <path d="M76.1255357,54.1629808 L75.3960714,54.9160714 L70.9446429,38.221978 L77.805,31.8119505 C79.0705357,31.0168269 80.7839286,29.5386676 83.2064286,27.037706 C83.9121429,26.3091346 84.5771429,25.5945742 85.2183929,24.890522 L85.9614286,24.196978 L85.8901786,24.1234203 C95.3392857,13.3980082 96.8083929,5.6709478 93.1576786,1.90199176 C89.5103571,-1.86346154 82.0223214,-0.350274725 71.6367857,9.40487637 L71.5655357,9.33131868 L70.89375,10.0984203 C70.2117857,10.7569368 69.5196429,11.4434753 68.8139286,12.1720467 C66.3914286,14.6695055 64.9596429,16.4383929 64.1928571,17.7484203 L58.0348214,24.7749313 L42.0408929,20.0006868 L42.53625,19.4892857 C45.3183929,16.617033 45.4303571,12.070467 42.7771429,9.33482143 C40.1273214,6.60267857 35.7233929,6.71126374 32.94125,9.58351648 L27.1564286,15.5521978 L13.4967857,11.4714973 C10.6908929,10.6833791 8.18017857,10.3085852 6.34464286,12.2666209 C6.33446429,12.2771291 6.32428571,12.2806319 6.31410714,12.2911401 L0.19,18.8798077 L41.1621429,44.0260302 L29.3075,57.5501374 L11.6917857,54.867033 C11.6544643,54.867033 11.6273214,54.881044 11.59,54.8740385 C9.82571429,54.6008242 8.47196429,54.6743819 7.02321429,56.1525412 L2.00857143,61.3260989 L22.6642857,74.6785714 L35.5978571,96.0032967 L40.5683929,90.871772 C42.0646429,89.3515797 42.1291071,87.9364698 41.8644643,86.090522 L41.8644643,86.076511 L39.2553571,67.8166896 L52.3110714,55.6201236 L76.1866071,98.2765797 L81.3946429,93.117033 C81.4217857,93.089011 81.4285714,93.0539835 81.4591071,93.0294643 C83.8748214,90.8122253 84.2073214,88.2131868 83.5083929,85.3934753 C83.4982143,85.3584478 83.5016071,85.3199176 83.4914286,85.2778846 L79.53875,70.4542582 L85.7205357,64.0722527 C88.5026786,61.2070055 88.61125,56.6569368 85.9580357,53.9212912 C83.3048214,51.1856456 78.9042857,51.290728 76.1255357,54.1629808 L76.1255357,54.1629808 L76.1255357,54.1629808 Z" id="Shape"></path>
                </g>
            </g>
        </g>
    </g>
</svg>