<?xml version="1.0" encoding="UTF-8" standalone="no"?>
<svg width="200px" height="255px" viewBox="0 0 200 255" version="1.1" xmlns="http://www.w3.org/2000/svg" xmlns:xlink="http://www.w3.org/1999/xlink" xmlns:sketch="http://www.bohemiancoding.com/sketch/ns">
    <!-- Generator: Sketch 3.2.2 (9983) - http://www.bohemiancoding.com/sketch -->
    <title>android-os-3-icon + 4.1</title>
    <desc>Created with Sketch.</desc>
    <defs></defs>
    <g id="Page-1" stroke="none" stroke-width="1" fill="none" fill-rule="evenodd" sketch:type="MSPage">
        <g id="android-os-3-icon-+-4.1" sketch:type="MSLayerGroup" fill="#67D168">
            <path d="M85.1247573,55.2878641 C85.1247573,57.1383495 83.6184466,58.6432039 81.7592233,58.6441748 C79.9160194,58.6393204 78.4121359,57.1402913 78.4121359,55.2883495 C78.4131068,53.4436893 79.911165,51.926699 81.7616505,51.926699 C83.6199029,51.9257282 85.1218447,53.4436893 85.1247573,55.2878641 L85.1247573,55.2878641 Z M118.230097,51.915534 C116.374757,51.9218447 114.877184,53.4407767 114.870388,55.2800971 C114.870388,57.1373786 116.377184,58.6393204 118.229126,58.6373786 C120.080097,58.6373786 121.585437,57.1354369 121.580583,55.2825243 C121.582524,53.438835 120.071845,51.9208738 118.230097,51.915534 L118.230097,51.915534 Z M200,24.2718447 L200,175.728155 C200,189.13301 189.13301,200 175.728155,200 L24.2718447,200 C10.8669903,200 0,189.13301 0,175.728155 L0,24.2718447 C0,10.8669903 10.8669903,0 24.2718447,0 L175.728155,0 C189.13301,0 200,10.8669903 200,24.2718447 L200,24.2718447 Z M60.2621359,73.1533981 L139.754369,73.1451456 C139.756311,59.3927184 131.801456,47.4378641 119.620874,41.131068 L125.826699,29.7985437 C126.158738,29.2063107 125.939806,28.4519417 125.339806,28.1169903 C124.734951,27.7966019 123.986893,28.0145631 123.667476,28.611165 L117.398544,40.0626214 C106.375243,35.1597087 93.4864078,35.2072816 82.5941748,40.0456311 L76.3194175,28.6247573 C75.9936893,28.0218447 75.2427184,27.8038835 74.65,28.1320388 C74.0461165,28.4567961 73.8262136,29.2126214 74.1601942,29.8029126 L80.368932,41.1271845 C68.1699029,47.4194175 60.2553398,59.3990291 60.2621359,73.1533981 L60.2621359,73.1533981 Z M56.8165049,83.4533981 C56.8145631,78.5485437 52.8296117,74.5640777 47.9199029,74.5674757 C43.0092233,74.5645631 39.0305825,78.5524272 39.0291262,83.4572816 L39.0368932,120.691262 C39.0368932,125.613107 43.018932,129.585437 47.9286408,129.584466 C52.8417476,129.584466 56.8223301,125.61068 56.8169903,120.691262 L56.8169903,83.4533981 L56.8165049,83.4533981 Z M139.763107,133.935437 L139.753883,76.2325243 L60.2616505,76.2466019 L60.2742718,133.948058 C60.2703883,139.196117 64.5150485,143.43301 69.7621359,143.433981 L76.2286408,143.436408 L76.2286408,163.137379 C76.2276699,168.042233 80.2150485,172.029612 85.1145631,172.029612 C90.026699,172.029612 94.0072816,168.038835 94.0082524,163.131068 L94.0082524,143.433981 L106.012136,143.432039 L106.012136,163.132039 C106.011165,168.033981 110.000485,172.028155 114.900971,172.020874 C119.813107,172.023786 123.790777,168.032039 123.790291,163.123786 L123.790291,143.429612 L130.27233,143.424757 C135.506311,143.426699 139.762136,139.184466 139.763107,133.935437 L139.763107,133.935437 Z M160.971359,120.679126 L160.965049,83.4451456 C160.964078,78.534466 156.984466,74.5548544 152.073786,74.5558252 C147.164563,74.5519417 143.184466,78.538835 143.185437,83.4490291 L143.191262,120.683495 C143.191262,125.599029 147.168447,129.57233 152.08301,129.572816 C156.992718,129.57233 160.970388,125.598544 160.971359,120.679126 L160.971359,120.679126 Z" id="android-os-3-icon" sketch:type="MSShapeGroup"></path>
            <path d="M90.2041368,239.378861 L94.2661731,239.378861 L94.2661731,246.571723 L90.2041368,246.571723 L90.2041368,255 L80.8642164,255 L80.8642164,246.571723 L65.2792605,246.571723 L64.7266025,240.861359 L80.8642164,215.109815 L80.8642164,215.027454 L90.2041368,215.027454 L90.2041368,239.378861 Z M73.0717385,239.378861 L80.8642164,239.378861 L80.8642164,227.079616 L80.698419,227.024708 L79.9799636,228.150309 L73.0717385,239.378861 Z M108.966876,255 L99.6545887,255 L99.6545887,247.203157 L108.966876,247.203157 L108.966876,255 Z M135.273398,255 L125.96111,255 L125.96111,224.334248 L116.980417,224.334248 L116.980417,217.800275 L135.273398,215 L135.273398,255 Z" id="4.1" sketch:type="MSShapeGroup"></path>
        </g>
    </g>
</svg>