<svg xmlns="http://www.w3.org/2000/svg" width="256px" height="66px" viewBox="0 0 256 66" version="1.1">
  <g id="Page-1" stroke="none" stroke-width="1" fill="none" fill-rule="evenodd">
    
      <path id="Save" d="M36.74656 8.38344175L43.62656 8.38344175 43.62656 20.8252427 36.74656 20.8252427 36.74656 8.38344175 36.74656 8.38344175ZM52.32 0L0 0 0 66 64 66 64 11.6941748 52.32 0 52.32 0ZM15.12 4.80582524L47.68 4.80582524 47.68 24.3495146 15.12 24.3495146 15.12 4.80582524 15.12 4.80582524ZM54.77328 60.7667767L9.22672 60.7667767 9.22672 35.1892136 54.77328 35.1892136 54.77328 60.7667767 54.77328 60.7667767ZM50 42.6917476L14 42.6917476 14 39.4878641 50 39.4878641 50 42.6917476 50 42.6917476ZM50 46.3762136L14 46.3762136 14 49.5800971 50 49.5800971 50 46.3762136 50 46.3762136ZM50 53.2645631L14 53.2645631 14 56.4684466 50 56.4684466 50 53.2645631 50 53.2645631Z"  fill="#268BB4"/>
      <g id="Delete" transform="translate(64.000000, 0.000000)" fill="#B12727">
        <path d="M64 32C64 49.673165 49.673165 64 32 64 14.326835 64 0 49.673165 0 32 0 14.326835 14.326835 0 32 0 49.673165 0 64 14.326835 64 32L64 32ZM42.7695534 48.5421359L32.3109903 38.0840388 21.8521165 48.5433786 16.2344078 42.9222524 26.6909515 32.464466 16.2333204 22.0074563 21.8542913 16.3897476 32.3102136 26.8442718 42.7645825 16.3885049 48.3867961 22.0071456 37.9305631 32.4638447 48.3880388 42.919767 42.7695534 48.5421359 42.7695534 48.5421359Z" id="x-mark-4-icon"/>
      </g>
      <g id="Add" transform="translate(128.000000, 0.000000)">
        <path d="M64 32C64 49.673165 49.673165 64 32 64 14.326835 64 0 49.673165 0 32 0 14.326835 14.326835 0 32 0 49.673165 0 64 14.326835 64 32L64 32ZM57.7864078 32C57.7864078 17.7467961 46.2511845 6.21359223 32 6.21359223 17.7467961 6.21359223 6.21359223 17.7489709 6.21359223 32 6.21359223 46.2532039 17.7488155 57.7864078 32 57.7864078 46.2532039 57.7864078 57.7864078 46.2510291 57.7864078 32L57.7864078 32ZM48.7269903 37.039068L36.8838835 37.039068 36.8838835 48.8818641 27.7379417 48.8818641 27.7379417 37.039068 15.894835 37.039068 15.894835 27.8931262 27.7379417 27.8931262 27.7379417 16.0500194 36.8838835 16.0500194 36.8838835 27.8931262 48.7269903 27.8931262 48.7269903 37.039068 48.7269903 37.039068Z" id="plus-5-icon" fill="#95C75D"/>
      </g>
      <path id="Calendar" d="M214.90532 38.3335431L205.755029 38.3335431 205.755029 28.9953282 214.90532 28.9953282 214.90532 38.3335431 214.90532 38.3335431ZM228.730408 28.9953282L219.580272 28.9953282 219.580272 38.3335431 228.730408 38.3335431 228.730408 28.9953282 228.730408 28.9953282ZM242.55565 28.9953282L233.405359 28.9953282 233.405359 38.3335431 242.55565 38.3335431 242.55565 28.9953282 242.55565 28.9953282ZM214.90532 42.6291472L205.755029 42.6291472 205.755029 51.9676791 214.90532 51.9676791 214.90532 42.6291472 214.90532 42.6291472ZM228.730408 42.6291472L219.580272 42.6291472 219.580272 51.9676791 228.730408 51.9676791 228.730408 42.6291472 228.730408 42.6291472ZM242.555495 42.6291472L233.405359 42.6291472 233.405359 51.9676791 242.555495 51.9676791 242.555495 42.6291472 242.555495 42.6291472ZM245.96334 10.1432443C245.96334 11.7341207 244.69965 13.0239434 243.140816 13.0239434 241.581981 13.0239434 240.318136 11.7341207 240.318136 10.1432443L240.318136 2.89369882C240.318136 1.30298091 241.581981 0.0131582207 243.140816 0.0131582207 244.69965 0.0131582207 245.96334 1.30298091 245.96334 2.89369882L245.96334 10.1432443 245.96334 10.1432443ZM207.827417 2.88069913C207.827417 1.28982269 206.563573 8.8817842e-16 205.004893 8.8817842e-16 203.445903 8.8817842e-16 202.182214 1.28982269 202.182214 2.88069913L202.182214 10.1300861C202.182214 11.7209625 203.445903 13.0107852 205.004893 13.0107852 206.563573 13.0107852 207.827417 11.7209625 207.827417 10.1300861L207.827417 2.88069913 207.827417 2.88069913ZM249.375068 7.08673229L249.375068 10.0379785C249.375068 13.5463089 246.57833 16.4005331 243.140816 16.4005331 239.703146 16.4005331 236.906408 13.5463089 236.906408 10.0379785L236.906408 7.08673229 211.239146 7.08673229 211.239146 10.0248203C211.239146 13.5331507 208.442408 16.3873748 205.004893 16.3873748 201.567223 16.3873748 198.770485 13.5331507 198.770485 10.0248203L198.770485 7.08673229 192 7.08673229 192 64 256 64 256 7.08673229 249.375068 7.08673229 249.375068 7.08673229ZM249.786408 57.6586888L198.213592 57.6586888 198.213592 22.3897429 249.786408 22.3897429 249.786408 57.6586888 249.786408 57.6586888Z" fill="#9D68B1"/>
    </g>
 
</svg>
