<svg xmlns="http://www.w3.org/2000/svg" width="400px" height="400px" viewBox="0 0 400 400" version="1.1"><g stroke="none" stroke-width="1" fill="none" fill-rule="evenodd"><path d="M75 50L125 50C131.9125 50 137.5 55.6125 137.5 62.525L137.5 312.5C137.5 319.4125 131.9125 325 125 325L75 325C68.0875 325 62.5 319.4125 62.5 312.5L62.5 62.5125C62.5 55.6125 68.0875 50 75 50L75 50Z" fill="#3F95D4"/><path d="M87.5 312.5L87.5 62.5125C87.5 55.6125 93.0875 50 100 50L75 50C68.0875 50 62.5 55.6125 62.5 62.5125L62.5 312.5C62.5 319.4125 68.0875 325 75 325L100 325C93.0875 325 87.5 319.4 87.5 312.5L87.5 312.5Z" fill="#367FB4"/><path d="M0 325L400 325 400 400 0 400 0 325 0 325Z" fill="#D99666"/><path d="M62.5 237.5L137.5 237.5 137.5 287.525 62.5 287.525 62.5 237.5 62.5 237.5Z" fill="#F7CB8B"/><path d="M150 0L225 0C231.9125 0 237.5 5.6125 237.5 12.525L237.5 312.5C237.5 319.4125 231.9125 325 225 325L150 325C143.0875 325 137.5 319.4125 137.5 312.5L137.5 12.5125C137.5 5.6125 143.0875 1.66533454e-14 150 1.66533454e-14L150 0Z" fill="#EB6969"/><path d="M175 275.0125L200 275.0125 200 100 175 100 175 275.0125 175 275.0125ZM175 50L175 75 200 75 200 50 175 50 175 50Z" fill="#9ACCC3"/><path d="M250 75L325 75C331.9125 75 337.5 80.6125 337.5 87.5L337.5 312.5C337.5 319.4125 331.9125 325 325 325L250 325C243.0875 325 237.5 319.4125 237.5 312.5L237.5 87.5C237.5 80.6125 243.0875 75 250 75L250 75Z" fill="#E2574C"/><rect fill="#D2AD77" x="62.5" y="237.5" width="25" height="50.025"/><path d="M162.5 312.5L162.5 12.5125C162.5 5.6125 168.0875 2.84217094e-14 175 2.84217094e-14L150 2.84217094e-14C143.0875 2.84217094e-14 137.5 5.6125 137.5 12.5125L137.5 312.5C137.5 319.4125 143.0875 325 150 325L175 325C168.0875 325 162.5 319.4 162.5 312.5L162.5 312.5Z" fill="#CC5757"/><path d="M262.5 312.5L262.5 87.5C262.5 80.6125 268.0875 75 275 75L250 75C243.0875 75 237.5 80.6125 237.5 87.5L237.5 312.5C237.5 319.4125 243.0875 325 250 325L275 325C268.0875 325 262.5 319.4 262.5 312.5L262.5 312.5Z" fill="#C04A40"/><path d="M237.5 200L337.5 200 337.5 150 237.5 150 237.5 200 237.5 200ZM237.5 125L237.5 137.525 337.5 137.525 337.5 125 237.5 125 237.5 125Z" fill="#F7CB8B"/><g transform="translate(237.500000, 125.000000)" fill="#D2AD77"><rect x="0" y="0" width="25" height="12.525"/><rect x="0" y="25" width="25" height="50"/></g></g></svg>