<?xml version="1.0" encoding="UTF-8" standalone="no"?>
<svg width="400px" height="400px" viewBox="0 0 400 400" version="1.1" xmlns="http://www.w3.org/2000/svg" xmlns:xlink="http://www.w3.org/1999/xlink" xmlns:sketch="http://www.bohemiancoding.com/sketch/ns">
    <!-- Generator: Sketch 3.2.2 (9983) - http://www.bohemiancoding.com/sketch -->
    <title>icons</title>
    <desc>Created with Sketch.</desc>
    <defs></defs>
    <g id="Page-1" stroke="none" stroke-width="1" fill="none" fill-rule="evenodd" sketch:type="MSPage">
        <g id="icons" sketch:type="MSLayerGroup">
            <g id="bookshelf" sketch:type="MSShapeGroup">
                <path d="M75,50 L125,50 C131.9125,50 137.5,55.6125 137.5,62.525 L137.5,312.5 C137.5,319.4125 131.9125,325 125,325 L75,325 C68.0875,325 62.5,319.4125 62.5,312.5 L62.5,62.5125 C62.5,55.6125 68.0875,50 75,50 L75,50 Z" id="Shape" fill="#3F95D4"></path>
                <path d="M87.5,312.5 L87.5,62.5125 C87.5,55.6125 93.0875,50 100,50 L75,50 C68.0875,50 62.5,55.6125 62.5,62.5125 L62.5,312.5 C62.5,319.4125 68.0875,325 75,325 L100,325 C93.0875,325 87.5,319.4 87.5,312.5 L87.5,312.5 Z" id="Shape" fill="#367FB4"></path>
                <path d="M0,325 L400,325 L400,400 L0,400 L0,325 L0,325 Z" id="Shape" fill="#D99666"></path>
                <path d="M62.5,237.5 L137.5,237.5 L137.5,287.525 L62.5,287.525 L62.5,237.5 L62.5,237.5 Z" id="Shape" fill="#F7CB8B"></path>
                <path d="M150,0 L225,0 C231.9125,0 237.5,5.6125 237.5,12.525 L237.5,312.5 C237.5,319.4125 231.9125,325 225,325 L150,325 C143.0875,325 137.5,319.4125 137.5,312.5 L137.5,12.5125 C137.5,5.6125 143.0875,1.66533454e-14 150,1.66533454e-14 L150,0 Z" id="Shape" fill="#EB6969"></path>
                <path d="M175,275.0125 L200,275.0125 L200,100 L175,100 L175,275.0125 L175,275.0125 Z M175,50 L175,75 L200,75 L200,50 L175,50 L175,50 Z" id="Shape" fill="#9ACCC3"></path>
                <path d="M250,75 L325,75 C331.9125,75 337.5,80.6125 337.5,87.5 L337.5,312.5 C337.5,319.4125 331.9125,325 325,325 L250,325 C243.0875,325 237.5,319.4125 237.5,312.5 L237.5,87.5 C237.5,80.6125 243.0875,75 250,75 L250,75 Z" id="Shape" fill="#E2574C"></path>
                <rect id="Rectangle-path" fill="#D2AD77" x="62.5" y="237.5" width="25" height="50.025"></rect>
                <path d="M162.5,312.5 L162.5,12.5125 C162.5,5.6125 168.0875,2.84217094e-14 175,2.84217094e-14 L150,2.84217094e-14 C143.0875,2.84217094e-14 137.5,5.6125 137.5,12.5125 L137.5,312.5 C137.5,319.4125 143.0875,325 150,325 L175,325 C168.0875,325 162.5,319.4 162.5,312.5 L162.5,312.5 Z" id="Shape" fill="#CC5757"></path>
                <path d="M262.5,312.5 L262.5,87.5 C262.5,80.6125 268.0875,75 275,75 L250,75 C243.0875,75 237.5,80.6125 237.5,87.5 L237.5,312.5 C237.5,319.4125 243.0875,325 250,325 L275,325 C268.0875,325 262.5,319.4 262.5,312.5 L262.5,312.5 Z" id="Shape" fill="#C04A40"></path>
                <path d="M237.5,200 L337.5,200 L337.5,150 L237.5,150 L237.5,200 L237.5,200 Z M237.5,125 L237.5,137.525 L337.5,137.525 L337.5,125 L237.5,125 L237.5,125 Z" id="Shape" fill="#F7CB8B"></path>
                <g id="Group" transform="translate(237.500000, 125.000000)" fill="#D2AD77">
                    <rect id="Rectangle-path" x="0" y="0" width="25" height="12.525"></rect>
                    <rect id="Rectangle-path" x="0" y="25" width="25" height="50"></rect>
                </g>
            </g>
        </g>
    </g>
</svg>