<svg xmlns="http://www.w3.org/2000/svg" viewBox="0 0 200 200" version="1.1">
  <g id="Page-1" stroke="none" stroke-width="1" fill="none" fill-rule="evenodd">
    <circle id="Oval-1" fill="#4E4E4E" cx="100" cy="100" r="100"/>
    <path d="M139.875 44C137.956711 50.291335 133.034709 55.2110437 126.75 57.1272937 133.034709 59.0455825 137.956711 63.9673301 139.875 70.25 141.793289 63.9652913 146.715291 59.0455825 153 57.1272937 146.715291 55.2067112 141.793289 50.2910801 139.875 44L139.875 44Z" id="diamond-9-3" fill="#0087C4"/>
    <path d="M96.5 40C95.1663325 44.3739757 91.7443689 47.7943447 87.375 49.1265947 91.7443689 50.4602621 95.1663325 53.8820485 96.5 58.25 97.8336675 53.8806311 101.255631 50.4602621 105.625 49.1265947 101.255631 47.7913325 97.8336675 44.3737985 96.5 40L96.5 40Z" id="diamond-9-4" fill="#E0E0E0"/>
    <path d="M57.125 53C55.7913325 57.3739757 52.3693689 60.7943447 48 62.1265947 52.3693689 63.4602621 55.7913325 66.8820485 57.125 71.25 58.4586675 66.8806311 61.8806311 63.4602621 66.25 62.1265947 61.8806311 60.7913325 58.4586675 57.3737985 57.125 53L57.125 53Z" id="diamond-9-5" fill="#87D9FE"/>
    <path d="M61 119C59.0999806 125.231417 54.2248544 130.104272 48 132.002272 54.2248544 133.902291 59.0999806 138.777165 61 145 62.9000194 138.775146 67.7751456 133.902291 74 132.002272 67.7751456 130.099981 62.9000194 125.231165 61 119L61 119Z" id="diamond-9-6" fill="#4791B2"/>
    <path d="M137.5 123C135.819214 128.512408 131.506602 132.82301 126 134.50201 131.506602 136.182796 135.819214 140.495184 137.5 146 139.180786 140.493398 143.493398 136.182796 149 134.50201 143.493398 132.819214 139.180786 128.512184 137.5 123L137.5 123Z" id="diamond-9-7" fill="#00B0FF"/>
    <path d="M122.648374 66.25L78.6592354 66.25 56.7501699 90.8592476 100.5 145 144.24983 91.1671117 122.648374 66.25 122.648374 66.25Z" id="diamond-9-2" fill="#7AD6FF"/>
    <path d="M114.705837 92.625L100.5 126.360328 86.2941626 92.625 114.705837 92.625 114.705837 92.625Z" id="diamond-9-13" fill="#FFFFFF"/>
    <path d="M81.2039927 92.625L94.5 124.202731 68.985 92.625 81.2039927 92.625 81.2039927 92.625Z" id="diamond-9-11" fill="#FFFFFF"/>
    <path d="M118.24585 92.625L131.541857 124.202731 106.026857 92.625 118.24585 92.625 118.24585 92.625Z" id="diamond-9-12" fill="#FFFFFF" transform="translate(118.784357, 108.413865) scale(-1, 1) translate(-118.784357, -108.413865) "/>
    <path d="M88.2808799 87.124915L100.500127 74.9056675 112.71912 87.124915 88.2808799 87.124915 88.2808799 87.124915Z" id="diamond-9-10" fill="#FFFFFF"/>
    <path d="M82.5811893 74.999915L95.2191626 74.999915 82.0941626 88.124915 70.900449 88.124915 82.5811893 74.999915 82.5811893 74.999915Z" id="diamond-9-8" fill="#FFFFFF"/>
    <path d="M117.30574 74.999915L129.943714 74.999915 116.818714 88.124915 105.625 88.124915 117.30574 74.999915 117.30574 74.999915Z" id="diamond-9-9" fill="#FFFFFF" transform="translate(117.784357, 81.562415) scale(-1, 1) translate(-117.784357, -81.562415) "/>
    
  </g>
</svg>
