<?xml version="1.0" encoding="UTF-8" standalone="no"?>
<svg width="296px" height="296px" viewBox="0 0 296 296" version="1.1" xmlns="http://www.w3.org/2000/svg" xmlns:xlink="http://www.w3.org/1999/xlink" xmlns:sketch="http://www.bohemiancoding.com/sketch/ns">
    <!-- Generator: Sketch 3.2.2 (9983) - http://www.bohemiancoding.com/sketch -->
    <title>Group</title>
    <desc>Created with Sketch.</desc>
    <defs></defs>
    <g id="Page-1" stroke="none" stroke-width="1" fill="none" fill-rule="evenodd" sketch:type="MSPage">
        <g id="Group" sketch:type="MSLayerGroup" transform="translate(16.000000, 16.000000)">
            <path d="M94.4120722,158.064319 C83.0317232,158.064319 74.9266036,148.14501 74.6442346,138.060797 L140.615671,138.060797 C141.622913,116.343986 134.15281,100.942452 115.016475,90.1991274 C117.812304,87.1239408 140.716822,79.0313709 134.855093,101.026033 L137.106013,104.29825 C147.041888,74.0335652 117.198873,75.6790862 97.4518685,85.2841499 C68.9893249,85.1897759 52.8737107,103.096488 48.4444079,121.474066 C56.1383982,110.426787 66.0843127,103.880093 72.5707677,102.059629 C35.4494103,131.913436 18.2000532,197.75787 68.6125819,176.889922 L65.1137163,174.780814 C34.7757406,184.348982 46.4976933,157.307821 52.3360801,153.407866 C59.3247755,167.703267 74.2157867,179.128293 92.4327283,179.128293 C115.617105,179.128293 132.839857,167.155596 139.673186,147.29715 L112.90812,147.29715 C109.043555,154.180678 103.671767,158.064319 94.4120722,158.064319 L94.4120722,158.064319 Z M94.4120722,106.795396 C105.79217,106.795396 113.378986,115.725033 113.661606,124.584141 L74.9271056,124.584141 C75.3040996,117.044512 82.2543928,106.795396 94.4120722,106.795396 L94.4120722,106.795396 Z" id="internet-explorer-icon" fill="#2890C5" sketch:type="MSShapeGroup"></path>
            <path d="M216.234375,106.976562 C216.234375,111.992213 214.945325,116.457012 212.367188,120.371094 C209.78905,124.285176 206.226585,127.367176 201.679688,129.617188 C206.882839,132.007824 210.960923,135.289042 213.914062,139.460938 C216.867202,143.632833 218.34375,148.414036 218.34375,153.804688 C218.34375,163.367235 215.062533,170.703099 208.5,175.8125 C201.937467,180.921901 193.359428,183.476562 182.765625,183.476562 C172.171822,183.476562 163.570346,180.910182 156.960938,175.777344 C150.351529,170.644506 147.046875,163.32036 147.046875,153.804688 C147.046875,148.414036 148.523423,143.632833 151.476562,139.460938 C154.429702,135.289042 158.507786,132.007824 163.710938,129.617188 C159.070289,127.367176 155.472669,124.285176 152.917969,120.371094 C150.363268,116.457012 149.085938,111.992213 149.085938,106.976562 C149.085938,97.8358918 152.167938,90.7461189 158.332031,85.7070312 C164.496125,80.6679436 172.5937,78.1484375 182.625,78.1484375 C192.750051,78.1484375 200.882782,80.6679436 207.023438,85.7070312 C213.164093,90.7461189 216.234375,97.8358918 216.234375,106.976562 L216.234375,106.976562 Z M194.648438,151.90625 C194.648438,147.828105 193.546886,144.617199 191.34375,142.273438 C189.140614,139.929676 186.234393,138.757812 182.625,138.757812 C179.015607,138.757812 176.144542,139.929676 174.011719,142.273438 C171.878896,144.617199 170.8125,147.828105 170.8125,151.90625 C170.8125,156.031271 171.890614,159.277332 174.046875,161.644531 C176.203136,164.011731 179.109357,165.195312 182.765625,165.195312 C186.328143,165.195312 189.199208,164.011731 191.378906,161.644531 C193.558605,159.277332 194.648438,156.031271 194.648438,151.90625 L194.648438,151.90625 Z M192.539062,108.242188 C192.539062,104.585919 191.695321,101.703136 190.007812,99.59375 C188.320304,97.4843645 185.859391,96.4296875 182.625,96.4296875 C179.484359,96.4296875 177.08204,97.4726458 175.417969,99.5585938 C173.753898,101.644542 172.921875,104.539044 172.921875,108.242188 C172.921875,111.992206 173.765617,114.968739 175.453125,117.171875 C177.140633,119.375011 179.578109,120.476562 182.765625,120.476562 C185.953141,120.476562 188.378898,119.38673 190.042969,117.207031 C191.70704,115.027333 192.539062,112.039081 192.539062,108.242188 L192.539062,108.242188 Z" id="8" fill="#2890C5" sketch:type="MSShapeGroup"></path>
            <circle id="Oval-1" stroke="#D02D2D" stroke-width="32" sketch:type="MSShapeGroup" cx="132" cy="132" r="132"></circle>
            <path d="M62,28 L204,238" id="Line" stroke="#D12D2D" stroke-width="34" stroke-linecap="square" sketch:type="MSShapeGroup"></path>
        </g>
    </g>
</svg>