<?xml version="1.0" encoding="UTF-8" standalone="no"?>
<svg width="115px" height="115px" viewBox="0 0 115 115" version="1.1" xmlns="http://www.w3.org/2000/svg" xmlns:xlink="http://www.w3.org/1999/xlink" xmlns:sketch="http://www.bohemiancoding.com/sketch/ns">
    <g id="Menu">
        <circle id="MenuCircle" fill="#000000" cx="57.5" cy="57.5" r="57.5"></circle>
        <g id="Bars" transform="translate(33.000000, 33.000000)" fill="#FFFFFF">
            <rect id="BarBottom" x="0" y="41" width="50" height="9"></rect>
            <rect id="BarMiddle" x="0" y="21" width="50" height="9"></rect>
            <rect id="BarTop" x="0" y="0" width="50" height="9"></rect>
        </g>
    </g>
    <g id="Add">
        <circle id="AddCircle" fill="#000000" cx="57.5" cy="57.5" r="57.5"></circle>
        <path d="M65,51 L65,25 L51,25 L51,51 L25,51 L25,65 L51,65 L51,91 L65,91 L65,65 L91,65 L91,51 L65,51 Z" id="PlusSign" fill="#FFFFFF"></path>
    </g>
    <g id="Arrow">
        <circle id="ArrowCircle" fill="#000000" cx="57.5" cy="57.5" r="57.5"></circle>
        <path d="M58.7223777,29 L49.5539225,38.1249239 L62.2099163,50.8414019 L28,50.8414019 L28,64.3685981 L62.2099163,64.3685981 L49.5539225,77.0850761 L58.7223777,86.21 L87.1911805,57.605 L58.7223777,29 Z" id="ArrowIcon" fill="#FFFFFF"></path>
    </g>
</svg>