<?xml version="1.0" encoding="UTF-8" standalone="no"?>
<svg width="64px" height="64px" viewBox="0 0 64 64" version="1.1" xmlns="http://www.w3.org/2000/svg" xmlns:xlink="http://www.w3.org/1999/xlink" xmlns:sketch="http://www.bohemiancoding.com/sketch/ns">
    <!-- Generator: Sketch 3.2.2 (9983) - http://www.bohemiancoding.com/sketch -->
    <title>calendar-5-icon</title>
    <desc>Created with Sketch.</desc>
    <defs></defs>
    <g id="Page-1" stroke="none" stroke-width="1" fill="none" fill-rule="evenodd" sketch:type="MSPage">
        <g id="twayz-2" sketch:type="MSLayerGroup" transform="translate(-192.000000, 0.000000)" fill="#9D68B1">
            <path d="M214.90532,38.3335431 L205.755029,38.3335431 L205.755029,28.9953282 L214.90532,28.9953282 L214.90532,38.3335431 L214.90532,38.3335431 Z M228.730408,28.9953282 L219.580272,28.9953282 L219.580272,38.3335431 L228.730408,38.3335431 L228.730408,28.9953282 L228.730408,28.9953282 Z M242.55565,28.9953282 L233.405359,28.9953282 L233.405359,38.3335431 L242.55565,38.3335431 L242.55565,28.9953282 L242.55565,28.9953282 Z M214.90532,42.6291472 L205.755029,42.6291472 L205.755029,51.9676791 L214.90532,51.9676791 L214.90532,42.6291472 L214.90532,42.6291472 Z M228.730408,42.6291472 L219.580272,42.6291472 L219.580272,51.9676791 L228.730408,51.9676791 L228.730408,42.6291472 L228.730408,42.6291472 Z M242.555495,42.6291472 L233.405359,42.6291472 L233.405359,51.9676791 L242.555495,51.9676791 L242.555495,42.6291472 L242.555495,42.6291472 Z M245.96334,10.1432443 C245.96334,11.7341207 244.69965,13.0239434 243.140816,13.0239434 C241.581981,13.0239434 240.318136,11.7341207 240.318136,10.1432443 L240.318136,2.89369882 C240.318136,1.30298091 241.581981,0.0131582207 243.140816,0.0131582207 C244.69965,0.0131582207 245.96334,1.30298091 245.96334,2.89369882 L245.96334,10.1432443 L245.96334,10.1432443 Z M207.827417,2.88069913 C207.827417,1.28982269 206.563573,8.8817842e-16 205.004893,8.8817842e-16 C203.445903,8.8817842e-16 202.182214,1.28982269 202.182214,2.88069913 L202.182214,10.1300861 C202.182214,11.7209625 203.445903,13.0107852 205.004893,13.0107852 C206.563573,13.0107852 207.827417,11.7209625 207.827417,10.1300861 L207.827417,2.88069913 L207.827417,2.88069913 Z M249.375068,7.08673229 L249.375068,10.0379785 C249.375068,13.5463089 246.57833,16.4005331 243.140816,16.4005331 C239.703146,16.4005331 236.906408,13.5463089 236.906408,10.0379785 L236.906408,7.08673229 L211.239146,7.08673229 L211.239146,10.0248203 C211.239146,13.5331507 208.442408,16.3873748 205.004893,16.3873748 C201.567223,16.3873748 198.770485,13.5331507 198.770485,10.0248203 L198.770485,7.08673229 L192,7.08673229 L192,64 L256,64 L256,7.08673229 L249.375068,7.08673229 L249.375068,7.08673229 Z M249.786408,57.6586888 L198.213592,57.6586888 L198.213592,22.3897429 L249.786408,22.3897429 L249.786408,57.6586888 L249.786408,57.6586888 Z" id="calendar-5-icon" sketch:type="MSShapeGroup"></path>
        </g>
    </g>
</svg>