<svg xmlns="http://www.w3.org/2000/svg" width="125" height="32" viewBox="0 0 125 32" version="1.1"><g stroke="none" stroke-width="1" fill="none" fill-rule="evenodd"><path d="M17.9 4.1L21.3 4.1 21.3 10.1 17.9 10.1 17.9 4.1 17.9 4.1ZM25.5 0L0 0 0 32 31.3 32 31.3 5.7 25.5 0 25.5 0ZM7.4 2.3L23.3 2.3 23.3 11.8 7.4 11.8 7.4 2.3 7.4 2.3ZM26.7 29.5L4.5 29.5 4.5 17.1 26.7 17.1 26.7 29.5 26.7 29.5ZM24.4 20.7L6.8 20.7 6.8 19.1 24.4 19.1 24.4 20.7 24.4 20.7ZM24.4 22.5L6.8 22.5 6.8 24 24.4 24 24.4 22.5 24.4 22.5ZM24.4 25.8L6.8 25.8 6.8 27.4 24.4 27.4 24.4 25.8 24.4 25.8Z" fill="#268BB4"/><g transform="translate(31.250000, 0.000000)" fill="#B12727"><path d="M31.3 15.5C31.3 24.1 24.3 31 15.6 31 7 31 0 24.1 0 15.5 0 6.9 7 0 15.6 0 24.3 0 31.3 6.9 31.3 15.5L31.3 15.5 31.3 15.5ZM20.9 23.5L15.8 18.5 10.7 23.5 7.9 20.8 13 15.7 7.9 10.7 10.7 7.9 15.8 13 20.9 7.9 23.6 10.7 18.5 15.7 23.6 20.8 20.9 23.5 20.9 23.5Z"/></g><g transform="translate(62.500000, 0.000000)" fill="#95C75D"><path d="M31.3 15.5C31.3 24.1 24.3 31 15.6 31 7 31 0 24.1 0 15.5 0 6.9 7 0 15.6 0 24.3 0 31.3 6.9 31.3 15.5L31.3 15.5 31.3 15.5ZM28.2 15.5C28.2 8.6 22.6 3 15.6 3 8.7 3 3 8.6 3 15.5 3 22.4 8.7 28 15.6 28 22.6 28 28.2 22.4 28.2 15.5L28.2 15.5 28.2 15.5ZM23.8 18L18 18 18 23.7 13.5 23.7 13.5 18 7.8 18 7.8 13.5 13.5 13.5 13.5 7.8 18 7.8 18 13.5 23.8 13.5 23.8 18 23.8 18Z"/></g><path d="M104.9 18.6L100.5 18.6 100.5 14.1 104.9 14.1 104.9 18.6 104.9 18.6ZM111.7 14.1L107.2 14.1 107.2 18.6 111.7 18.6 111.7 14.1 111.7 14.1ZM118.4 14.1L114 14.1 114 18.6 118.4 18.6 118.4 14.1 118.4 14.1ZM104.9 20.7L100.5 20.7 100.5 25.2 104.9 25.2 104.9 20.7 104.9 20.7ZM111.7 20.7L107.2 20.7 107.2 25.2 111.7 25.2 111.7 20.7 111.7 20.7ZM118.4 20.7L114 20.7 114 25.2 118.4 25.2 118.4 20.7 118.4 20.7ZM120.1 4.9C120.1 5.7 119.5 6.3 118.7 6.3 118 6.3 117.3 5.7 117.3 4.9L117.3 1.4C117.3 0.6 118 0 118.7 0 119.5 0 120.1 0.6 120.1 1.4L120.1 4.9 120.1 4.9ZM101.5 1.4C101.5 0.6 100.9 0 100.1 0 99.3 0 98.7 0.6 98.7 1.4L98.7 4.9C98.7 5.7 99.3 6.3 100.1 6.3 100.9 6.3 101.5 5.7 101.5 4.9L101.5 1.4 101.5 1.4ZM121.8 3.4L121.8 4.9C121.8 6.6 120.4 8 118.7 8 117 8 115.7 6.6 115.7 4.9L115.7 3.4 103.1 3.4 103.1 4.9C103.1 6.6 101.8 7.9 100.1 7.9 98.4 7.9 97.1 6.6 97.1 4.9L97.1 3.4 93.8 3.4 93.8 31 125 31 125 3.4 121.8 3.4 121.8 3.4ZM122 28L96.8 28 96.8 10.9 122 10.9 122 28 122 28Z" fill="#9D68B1"/></g></svg>