<?xml version="1.0" encoding="UTF-8" standalone="no"?>
<svg width="300px" height="82px" viewBox="0 0 300 82" version="1.1" xmlns="http://www.w3.org/2000/svg" xmlns:xlink="http://www.w3.org/1999/xlink" xmlns:sketch="http://www.bohemiancoding.com/sketch/ns">
    <!-- Generator: Sketch 3.2.2 (9983) - http://www.bohemiancoding.com/sketch -->
    <title>nodejs-light</title>
    <desc>Created with Sketch.</desc>
    <defs></defs>
    <g id="Page-1" stroke="none" stroke-width="1" fill="none" fill-rule="evenodd" sketch:type="MSPage">
        <g id="nodejs-light" sketch:type="MSLayerGroup" transform="translate(0.000000, -1.000000)">
            <g id="Group-4" fill="#2D2E2B" sketch:type="MSShapeGroup">
                <path d="M45.0774194,44.7500196 C45.0774194,43.8679412 44.6177419,43.0574706 43.8629032,42.6196863 L23.7532258,30.9427255 C23.4129032,30.7409216 23.0306452,30.6351373 22.6451613,30.6188627 L22.4370968,30.6188627 C22.0532258,30.6351373 21.6725806,30.7409216 21.3274194,30.9427255 L1.21612903,42.6196863 C0.466129032,43.0574706 0,43.8679412 0,44.7500196 L0.0435483871,76.1956275 C0.0435483871,76.6334118 0.269354839,77.0402745 0.65,77.255098 C1.02419355,77.4796863 1.48548387,77.4796863 1.85645161,77.255098 L13.8096774,70.3481961 C14.5645161,69.8957647 15.0241935,69.0966863 15.0241935,68.2227451 L15.0241935,53.5301176 C15.0241935,52.654549 15.4854839,51.8440784 16.2370968,51.409549 L21.3274194,48.4508431 C21.7064516,48.2311373 22.1209677,48.122098 22.5451613,48.122098 C22.9580645,48.122098 23.383871,48.2311373 23.7532258,48.4508431 L28.8403226,51.409549 C29.5935484,51.8440784 30.0548387,52.654549 30.0548387,53.5301176 L30.0548387,68.2227451 C30.0548387,69.0966863 30.5209677,69.9006471 31.2725806,70.3481961 L43.2209677,77.255098 C43.5951613,77.4796863 44.0629032,77.4796863 44.4354839,77.255098 C44.8048387,77.0402745 45.0387097,76.6334118 45.0387097,76.1956275 L45.0774194,44.7500196" id="Fill-1"></path>
                <path d="M150.598387,61.1238039 C150.598387,61.3418824 150.482258,61.5453137 150.295161,61.6543529 L143.387097,65.670902 C143.2,65.7799412 142.967742,65.7799412 142.780645,65.670902 L135.872581,61.6543529 C135.683871,61.5453137 135.569355,61.3418824 135.569355,61.1238039 L135.569355,53.0760588 C135.569355,52.8563529 135.683871,52.654549 135.872581,52.5438824 L142.779032,48.5191961 C142.967742,48.4085294 143.2,48.4085294 143.387097,48.5191961 L150.295161,52.5438824 C150.482258,52.654549 150.598387,52.8563529 150.598387,53.0760588 L150.598387,61.1238039 L150.598387,61.1238039 Z M152.464516,1.52166667 C152.08871,1.31172549 151.629032,1.31498039 151.258065,1.53631373 C150.887097,1.75601961 150.658065,2.158 150.658065,2.59252941 L150.658065,33.7338039 C150.658065,34.0397647 150.496774,34.3245686 150.233871,34.477549 C149.970968,34.6305294 149.646774,34.6305294 149.383871,34.477549 L144.346774,31.5497647 C143.595161,31.1119804 142.670968,31.1136078 141.919355,31.5497647 L121.8,43.2657843 C121.048387,43.7035686 120.585484,44.5124118 120.585484,45.3879804 L120.585484,68.8232745 C120.585484,69.7004706 121.048387,70.5093137 121.8,70.947098 L141.917742,82.6712549 C142.669355,83.1090392 143.595161,83.1090392 144.348387,82.6712549 L164.469355,70.947098 C165.220968,70.5093137 165.683871,69.7004706 165.683871,68.8232745 L165.683871,10.4042941 C165.683871,9.51570588 165.206452,8.69709804 164.437097,8.26256863 L152.464516,1.52166667 L152.464516,1.52166667 Z" id="Fill-3"></path>
            </g>
            <path d="M224.443548,52.8644902 C225.191935,52.4267059 225.651613,51.6194902 225.651613,50.745549 L225.651613,45.0657451 C225.651613,44.1934314 225.191935,43.3845882 224.441935,42.9468039 L204.453226,31.2356667 C203.7,30.7946275 202.772581,30.793 202.017742,31.2324118 L181.906452,42.9484314 C181.154839,43.3862157 180.691935,44.1950588 180.691935,45.0706275 L180.691935,68.4994118 C180.691935,69.3814902 181.16129,70.1935882 181.919355,70.6297451 L201.906452,82.1211765 C202.643548,82.5459412 203.546774,82.5491961 204.28871,82.1341961 L216.377419,75.3542353 C216.76129,75.1394118 217,74.732549 217.001613,74.2915098 C217.004839,73.8488431 216.770968,73.4403529 216.391935,73.2206471 L196.153226,61.4981176 C195.774194,61.2800392 195.541935,60.8748039 195.541935,60.4353922 L195.541935,53.0923333 C195.541935,52.654549 195.774194,52.2493137 196.15,52.0312353 L202.45,48.3678431 C202.824194,48.1481373 203.287097,48.1481373 203.66129,48.3678431 L209.964516,52.0312353 C210.340323,52.2493137 210.572581,52.654549 210.572581,53.0923333 L210.572581,58.8697843 C210.572581,59.3091961 210.804839,59.7144314 211.180645,59.9325098 C211.558065,60.1522157 212.020968,60.1505882 212.396774,59.9308824 L224.443548,52.8644902" id="Fill-5" fill="#2D2E2B" sketch:type="MSShapeGroup"></path>
            <path d="M81.6612903,31.1087255 C82.4129032,30.6709412 83.3387097,30.6709412 84.0903226,31.1087255 L104.206452,42.8214902 C104.958065,43.2592745 105.420968,44.0681176 105.420968,44.9453137 L105.420968,68.3903725 C105.420968,69.2659412 104.958065,70.0747843 104.206452,70.5125686 L84.0903226,82.2367255 C83.3387097,82.6745098 82.4129032,82.6745098 81.6596774,82.2367255 L61.5483871,70.5125686 C60.7967742,70.0747843 60.333871,69.2659412 60.333871,68.3903725 L60.333871,44.9453137 C60.333871,44.0681176 60.7967742,43.2592745 61.55,42.8214902 L81.6612903,31.1087255" id="Fill-6" fill="#78B742" sketch:type="MSShapeGroup"></path>
            <path d="M263.501613,82.5703529 C262.808065,82.5703529 262.119355,82.3880784 261.512903,82.0332941 L255.179032,78.2527255 C254.233871,77.7189216 254.695161,77.5301373 255.006452,77.4194706 C256.269355,76.9784314 256.524194,76.875902 257.870968,76.1061176 C258.01129,76.0263725 258.196774,76.0556667 258.341935,76.1419216 L263.206452,79.0566863 C263.383871,79.1559608 263.632258,79.1559608 263.795161,79.0566863 L282.762903,68.009549 C282.940323,67.9070196 283.053226,67.7035882 283.053226,67.4920196 L283.053226,45.4026275 C283.053226,45.1878039 282.940323,44.9843725 282.759677,44.8753333 L263.798387,33.8379608 C263.622581,33.7338039 263.390323,33.7338039 263.212903,33.8379608 L244.256452,44.8785882 C244.072581,44.9843725 243.956452,45.1926863 243.956452,45.4026275 L243.956452,67.4920196 C243.956452,67.7035882 244.072581,67.9021373 244.254839,68.0030392 L249.451613,71.0317255 C252.270968,72.4541176 253.998387,70.7794706 253.998387,69.0966863 L253.998387,47.2872157 C253.998387,46.9796275 254.243548,46.7371373 254.548387,46.7371373 L256.954839,46.7371373 C257.254839,46.7371373 257.503226,46.9796275 257.503226,47.2872157 L257.503226,69.0966863 C257.503226,72.8935294 255.454839,75.0710588 251.887097,75.0710588 C250.790323,75.0710588 249.927419,75.0710588 247.517742,73.8732549 L242.543548,70.982902 C241.314516,70.2668235 240.554839,68.9258039 240.554839,67.4920196 L240.554839,45.4026275 C240.554839,43.9688431 241.314516,42.6278235 242.543548,41.915 L261.512903,30.8548431 C262.712903,30.1696863 264.308065,30.1696863 265.498387,30.8548431 L284.466129,41.915 C285.695161,42.6310784 286.458065,43.9688431 286.458065,45.4026275 L286.458065,67.4920196 C286.458065,68.9258039 285.695161,70.2619412 284.466129,70.982902 L265.498387,82.0332941 C264.891935,82.3880784 264.204839,82.5703529 263.501613,82.5703529" id="Fill-7" fill="#78B742" sketch:type="MSShapeGroup"></path>
            <path d="M269.36129,67.3536863 C261.059677,67.3536863 259.320968,63.5080196 259.320968,60.2840392 C259.320968,59.976451 259.566129,59.7323333 259.869355,59.7323333 L262.322581,59.7323333 C262.596774,59.7323333 262.824194,59.9308824 262.867742,60.2010392 C263.237097,62.7203333 264.341935,63.9913725 269.36129,63.9913725 C273.356452,63.9913725 275.058065,63.08 275.058065,60.939902 C275.058065,59.7062941 274.575806,58.7916667 268.366129,58.1781176 C263.175806,57.6605882 259.966129,56.5034706 259.966129,52.3127843 C259.966129,48.4508431 263.191935,46.148 268.6,46.148 C274.677419,46.148 277.683871,48.2767059 278.064516,52.8433333 C278.079032,52.9995686 278.024194,53.1509216 277.920968,53.268098 C277.816129,53.3787647 277.670968,53.4454902 277.519355,53.4454902 L275.056452,53.4454902 C274.801613,53.4454902 274.575806,53.2615882 274.524194,53.0125882 C273.933871,50.3614706 272.496774,49.5151961 268.6,49.5151961 C264.237097,49.5151961 263.730645,51.0482549 263.730645,52.1972353 C263.730645,53.5903333 264.329032,53.9955686 270.219355,54.7816275 C276.048387,55.559549 278.817742,56.6597059 278.817742,60.7934314 C278.817742,64.9645882 275.370968,67.3536863 269.36129,67.3536863" id="Fill-8" fill="#78B742" sketch:type="MSShapeGroup"></path>
            <path d="M202.93871,51.7675882 C203.083871,51.6829608 203.26129,51.6829608 203.404839,51.7675882 L207.266129,54.015098 C207.409677,54.0997255 207.498387,54.2543333 207.498387,54.4219608 L207.498387,58.9202353 C207.498387,59.0878627 207.409677,59.244098 207.266129,59.3287255 L203.404839,61.5746078 C203.26129,61.6592353 203.083871,61.6592353 202.93871,61.5746078 L199.082258,59.3287255 C198.937097,59.244098 198.848387,59.0878627 198.848387,58.9202353 L198.848387,54.4219608 C198.848387,54.2543333 198.937097,54.0997255 199.082258,54.015098 L202.93871,51.7675882" id="Fill-9" fill="#78B742" sketch:type="MSShapeGroup"></path>
            <path d="M295.332258,36.585098 L295.970968,36.585098 C296.491935,36.585098 296.590323,36.2140392 296.590323,35.9992157 C296.590323,35.4328627 296.203226,35.4328627 295.990323,35.4328627 L295.332258,35.4328627 L295.332258,36.585098 L295.332258,36.585098 Z M294.558065,34.7704902 L295.970968,34.7704902 C296.454839,34.7704902 297.403226,34.7704902 297.403226,35.8625098 C297.403226,36.6241569 296.919355,36.7803922 296.627419,36.8780392 C297.190323,36.917098 297.227419,37.2881569 297.304839,37.815451 C297.345161,38.1458235 297.403226,38.7121765 297.517742,38.9074706 L296.648387,38.9074706 C296.627419,38.7121765 296.491935,37.6575882 296.491935,37.6006275 C296.435484,37.3662745 296.356452,37.249098 296.067742,37.249098 L295.351613,37.249098 L295.351613,38.9074706 L294.558065,38.9074706 L294.558065,34.7704902 L294.558065,34.7704902 Z M292.866129,36.8292157 C292.866129,38.5461765 294.240323,39.9327647 295.922581,39.9327647 C297.624194,39.9327647 298.998387,38.5168824 298.998387,36.8292157 C298.998387,35.1122549 297.606452,33.7451961 295.922581,33.7451961 C294.258065,33.7451961 292.866129,35.091098 292.866129,36.8292157 L292.866129,36.8292157 Z M299.587097,36.8389804 C299.587097,38.8684118 297.943548,40.5284118 295.932258,40.5284118 C293.93871,40.5284118 292.275806,38.8879412 292.275806,36.8389804 C292.275806,34.7509608 293.979032,33.149549 295.932258,33.149549 C297.904839,33.149549 299.587097,34.7509608 299.587097,36.8389804 L299.587097,36.8389804 Z" id="Fill-10" fill="#78B742" sketch:type="MSShapeGroup"></path>
        </g>
    </g>
</svg>