<svg xmlns="http://www.w3.org/2000/svg" height="32" width="32"><g><path fill="#484848" d="M.34 29.99L8 22.34c.454-.452 1.188-.452 1.642 0 .453.453.453 1.188 0 1.64l-4.02 4.017H22.36l-4.02-4.016c-.454-.452-.454-1.187 0-1.64.452-.452 1.187-.452 1.642 0l7.658 7.65c.453.452.453 1.188 0 1.64-.453.452-1.188.452-1.64 0l-1.708-1.643H3.688L1.983 31.63c-.453.452-1.188.452-1.643 0-.453-.452-.453-1.188 0-1.64z"/><path fill="#BF392C" d="M3.97 0h20c1.105 0 2 .895 2 2v22c0 1.104-.895 2-2 2h-20c-1.103 0-2-.896-2-2V2c0-1.105.897-2 2-2z"/><path fill="#fff" d="M3.97 6h20v11h-20V6z"/><path fill="#F0F0F0" d="M3.973 5.964h9.998V17.01H3.974V5.964z"/><path fill="#EBEBEB" d="M8.97 2h10v2h-10V2z"/><path fill="#fff" d="M3.97 23h6v-4h-6v4zm14-4v4h6v-4h-6z"/><path fill="#F4B459" d="M4.97 22h4v-2.002h-4V22zm14-2.002V22h4v-2.002h-4z"/></g></svg>