<?xml version="1.0" encoding="UTF-8" standalone="no"?>
<svg width="100px" height="66px" viewBox="0 0 100 66" version="1.1" xmlns="http://www.w3.org/2000/svg" xmlns:xlink="http://www.w3.org/1999/xlink" xmlns:sketch="http://www.bohemiancoding.com/sketch/ns">
    <!-- Generator: Sketch 3.2.2 (9983) - http://www.bohemiancoding.com/sketch -->
    <title>Shape</title>
    <desc>Created with Sketch.</desc>
    <defs></defs>
    <g id="Page-1" stroke="none" stroke-width="1" fill="none" fill-rule="evenodd" sketch:type="MSPage">
        <g id="card" sketch:type="MSLayerGroup" fill="#F6A623">
            <g id="Page-1" sketch:type="MSShapeGroup">
                <g id="cards">
                    <path d="M90.625,0 L9.375,0 C4.196875,0 0,4.22085714 0,9.42857143 L0,56.5714286 C0,61.7791429 4.196875,66 9.375,66 L90.625,66 C95.8,66 100,61.7791429 100,56.5714286 L100,9.42857143 C100,4.22085714 95.8,0 90.625,0 L90.625,0 L90.625,0 Z M25,50.2857143 L18.75,50.2857143 C17.021875,50.2857143 15.625,48.8808571 15.625,47.1428571 C15.625,45.4048571 17.021875,44 18.75,44 L25,44 C26.728125,44 28.125,45.4048571 28.125,47.1428571 C28.125,48.8808571 26.728125,50.2857143 25,50.2857143 L25,50.2857143 L25,50.2857143 Z M21.875,28.2511429 C18.409375,28.2511429 15.6,25.4445714 15.6,21.9842857 C15.6,18.524 18.409375,15.7142857 21.875,15.7142857 C25.3375,15.7142857 28.15,18.524 28.15,21.9842857 C28.15,25.4445714 25.3375,28.2511429 21.875,28.2511429 L21.875,28.2511429 L21.875,28.2511429 Z M31.23125,27.39 C33.09375,26.3057143 34.3625,24.3068571 34.3625,21.9842857 C34.3625,19.6617143 33.09375,17.6597143 31.23125,16.5754286 C32.15625,16.0411429 33.2125,15.7142857 34.35625,15.7142857 C37.821875,15.7142857 40.63125,18.524 40.63125,21.9842857 C40.63125,25.4445714 37.825,28.2511429 34.35625,28.2511429 C33.2125,28.2511429 32.15625,27.9242857 31.23125,27.39 L31.23125,27.39 L31.23125,27.39 Z M43.75,50.2857143 L37.5,50.2857143 C35.771875,50.2857143 34.375,48.8808571 34.375,47.1428571 C34.375,45.4048571 35.771875,44 37.5,44 L43.75,44 C45.478125,44 46.875,45.4048571 46.875,47.1428571 C46.875,48.8808571 45.478125,50.2857143 43.75,50.2857143 L43.75,50.2857143 L43.75,50.2857143 Z M62.5,50.2857143 L56.25,50.2857143 C54.521875,50.2857143 53.125,48.8808571 53.125,47.1428571 C53.125,45.4048571 54.521875,44 56.25,44 L62.5,44 C64.228125,44 65.625,45.4048571 65.625,47.1428571 C65.625,48.8808571 64.228125,50.2857143 62.5,50.2857143 L62.5,50.2857143 L62.5,50.2857143 Z M81.25,50.2857143 L75,50.2857143 C73.271875,50.2857143 71.875,48.8808571 71.875,47.1428571 C71.875,45.4048571 73.271875,44 75,44 L81.25,44 C82.978125,44 84.375,45.4048571 84.375,47.1428571 C84.375,48.8808571 82.978125,50.2857143 81.25,50.2857143 L81.25,50.2857143 L81.25,50.2857143 Z" id="Shape"></path>
                </g>
            </g>
        </g>
    </g>
</svg>