<?xml version="1.0" encoding="UTF-8" standalone="no"?>
<svg width="94px" height="100px" viewBox="0 0 94 100" version="1.1" xmlns="http://www.w3.org/2000/svg" xmlns:xlink="http://www.w3.org/1999/xlink" xmlns:sketch="http://www.bohemiancoding.com/sketch/ns">
    <!-- Generator: Sketch 3.2.2 (9983) - http://www.bohemiancoding.com/sketch -->
    <title>Shape</title>
    <desc>Created with Sketch.</desc>
    <defs></defs>
    <g id="Page-1" stroke="none" stroke-width="1" fill="none" fill-rule="evenodd" sketch:type="MSPage">
        <g id="compass" sketch:type="MSLayerGroup" transform="translate(27.000000, 36.000000)" fill="#828282">
            <g id="Page-1" sketch:type="MSShapeGroup">
                <g id="compass">
                    <path d="M31.5385,-5.17666667 L14.4775,13.3666667 C14.1417857,13.73 13.8765714,14.19 13.7255,14.66 L6.13835714,38.4766667 C5.86978571,39.3133333 6.01414286,40.0566667 6.49085714,40.33 C6.97092857,40.6066667 7.686,40.36 8.28357143,39.71 L25.3445714,21.1633333 C25.6802857,20.8033333 25.9455,20.3433333 26.0965714,19.8733333 L33.6837143,-3.94333333 C33.9522857,-4.78 33.8079286,-5.52333333 33.3312143,-5.79666667 C32.8477857,-6.07333333 32.1327143,-5.82666667 31.5385,-5.17666667 L31.5385,-5.17666667 L31.5385,-5.17666667 Z M32.4449286,-27.6266667 C30.4608571,-32.5266667 25.6467143,-36 20,-36 C14.3532857,-36 9.53914286,-32.5266667 7.55507143,-27.6266667 C-12.3527857,-22.2033333 -27,-4.15333333 -27,17.3333333 C-27,43.1066667 -5.95742857,64 20,64 C45.9574286,64 67,43.1066667 67,17.3333333 C67,-4.15333333 52.3561429,-22.2033333 32.4449286,-27.6266667 L32.4449286,-27.6266667 L32.4449286,-27.6266667 Z M27.4897857,50.49 L20,45.53 L12.5102143,50.49 C-0.377857143,47.63 -10.4996429,37.5566667 -13.3867857,24.7633333 L-8.39807143,17.3333333 L-13.3867857,9.90333333 C-10.5063571,-2.89 -0.377857143,-12.9633333 12.5135714,-15.82 L20,-10.8633333 L27.4864286,-15.82 C40.3778571,-12.9633333 50.503,-2.89 53.3867857,9.90333333 L48.3980714,17.3333333 L53.3867857,24.7633333 C50.503,37.5566667 40.3778571,47.63 27.4897857,50.49 L27.4897857,50.49 L27.4897857,50.49 Z" id="Shape"></path>
                </g>
            </g>
        </g>
    </g>
</svg>