<?xml version="1.0" encoding="UTF-8" standalone="no"?>
<svg width="100px" height="85px" viewBox="0 0 100 85" version="1.1" xmlns="http://www.w3.org/2000/svg" xmlns:xlink="http://www.w3.org/1999/xlink" xmlns:sketch="http://www.bohemiancoding.com/sketch/ns">
    <!-- Generator: Sketch 3.2.2 (9983) - http://www.bohemiancoding.com/sketch -->
    <title>Shape</title>
    <desc>Created with Sketch.</desc>
    <defs></defs>
    <g id="Page-1" stroke="none" stroke-width="1" fill="none" fill-rule="evenodd" sketch:type="MSPage">
        <g id="event" sketch:type="MSLayerGroup" transform="translate(28.000000, 45.000000)" fill="#B682BF">
            <g id="Page-1" sketch:type="MSShapeGroup">
                <g id="calendar-month">
                    <path d="M37.625,2.22222222 L25.125,2.22222222 L25.125,11.6666667 L37.625,11.6666667 L37.625,2.22222222 L37.625,2.22222222 Z M37.625,-10.3703704 L25.125,-10.3703704 L25.125,-0.925925926 L37.625,-0.925925926 L37.625,-10.3703704 L37.625,-10.3703704 Z M62.625,-35.5555556 L59.5,-35.5555556 L59.5,-38.7037037 C59.5,-42.1792593 56.7,-45 53.25,-45 L47,-45 C43.55,-45 40.75,-42.1792593 40.75,-38.7037037 L40.75,-35.5555556 L31.375,-35.5555556 L31.375,-38.7037037 C31.375,-42.1792593 28.575,-45 25.125,-45 L18.875,-45 C15.425,-45 12.625,-42.1792593 12.625,-38.7037037 L12.625,-35.5555556 L3.25,-35.5555556 L3.25,-38.7037037 C3.25,-42.1792593 0.45,-45 -3,-45 L-9.25,-45 C-12.7,-45 -15.5,-42.1792593 -15.5,-38.7037037 L-15.5,-35.5555556 L-18.625,-35.5555556 C-23.803125,-35.5555556 -28,-31.3275926 -28,-26.1111111 L-28,30.5555556 C-28,35.772037 -23.803125,40 -18.625,40 L62.625,40 C67.8,40 72,35.772037 72,30.5555556 L72,-26.1111111 C72,-31.3275926 67.8,-35.5555556 62.625,-35.5555556 L62.625,-35.5555556 L62.625,-35.5555556 Z M62.625,30.5555556 L-18.625,30.5555556 L-18.625,-16.6666667 L62.625,-16.6666667 L62.625,30.5555556 L62.625,30.5555556 Z M37.625,14.8148148 L25.125,14.8148148 L25.125,24.2592593 L37.625,24.2592593 L37.625,14.8148148 L37.625,14.8148148 Z M56.375,2.22222222 L43.875,2.22222222 L43.875,11.6666667 L56.375,11.6666667 L56.375,2.22222222 L56.375,2.22222222 Z M56.375,-10.3703704 L43.875,-10.3703704 L43.875,-0.925925926 L56.375,-0.925925926 L56.375,-10.3703704 L56.375,-10.3703704 Z M0.125,2.22222222 L-12.375,2.22222222 L-12.375,11.6666667 L0.125,11.6666667 L0.125,2.22222222 L0.125,2.22222222 Z M0.125,14.8148148 L-12.375,14.8148148 L-12.375,24.2592593 L0.125,24.2592593 L0.125,14.8148148 L0.125,14.8148148 Z M18.875,-10.3703704 L6.375,-10.3703704 L6.375,-0.925925926 L18.875,-0.925925926 L18.875,-10.3703704 L18.875,-10.3703704 Z M18.875,14.8148148 L6.375,14.8148148 L6.375,24.2592593 L18.875,24.2592593 L18.875,14.8148148 L18.875,14.8148148 Z M18.875,2.22222222 L6.375,2.22222222 L6.375,11.6666667 L18.875,11.6666667 L18.875,2.22222222 L18.875,2.22222222 Z M56.375,14.8148148 L43.875,14.8148148 L43.875,24.2592593 L56.375,24.2592593 L56.375,14.8148148 L56.375,14.8148148 Z" id="Shape"></path>
                </g>
            </g>
        </g>
    </g>
</svg>